<svg width="20" height="8" viewBox="0 0 20 8" fill="none" xmlns="http://www.w3.org/2000/svg">
<g clip-path="url(#clip0)">
<path fill-rule="evenodd" clip-rule="evenodd" d="M-6.01673 5.85027C-7.12128 5.28375 -8.01962 4.823 -10 4.823V0.822998C-7.07233 0.822998 -5.50591 1.61693 -4.16136 2.30644L-4.13126 2.32188C-3.0267 2.8884 -2.12837 3.34915 -0.147987 3.34915C1.83239 3.34915 2.73073 2.8884 3.83528 2.32188L3.86539 2.30644C5.20994 1.61693 6.77636 0.822998 9.70403 0.822998C12.6317 0.822998 14.1981 1.61693 15.5427 2.30644L15.5728 2.32188C16.6773 2.8884 17.5757 3.34915 19.556 3.34915C21.5364 3.34915 22.4348 2.8884 23.5393 2.32188L23.5694 2.30644C24.914 1.61693 26.4804 0.822998 29.4081 0.822998C32.3357 0.822998 33.9021 1.61693 35.2467 2.30644L35.2768 2.32188C36.3813 2.8884 37.2797 3.34915 39.2601 3.34915C41.2404 3.34915 42.1388 2.8884 43.2433 2.32188L43.2734 2.30644C44.618 1.61693 46.1844 0.822998 49.1121 0.822998C52.0397 0.822998 53.6062 1.61693 54.9507 2.30644L54.9808 2.32188C56.0854 2.8884 56.9837 3.34915 58.9641 3.34915C60.9445 3.34915 61.8428 2.8884 62.9474 2.32188L62.9775 2.30644C64.322 1.61693 65.8884 0.822998 68.8161 0.822998C71.7438 0.822998 73.3102 1.61693 74.6547 2.30644L74.6849 2.32189C75.7894 2.88841 76.6877 3.34915 78.6681 3.34915C80.6485 3.34915 81.5468 2.8884 82.6514 2.32188L82.6815 2.30644C84.026 1.61693 85.5925 0.822998 88.5201 0.822998C91.4478 0.822998 93.0142 1.61693 94.3588 2.30644L94.3889 2.32187C95.4934 2.8884 96.3918 3.34915 98.3721 3.34915C100.353 3.34915 101.251 2.8884 102.355 2.32188L102.386 2.30644C103.73 1.61693 105.296 0.822998 108.224 0.822998C111.152 0.822998 112.718 1.61693 114.063 2.30644L114.093 2.32188C115.197 2.8884 116.096 3.34915 118.076 3.34915C120.057 3.34915 120.955 2.88841 122.059 2.32189L122.09 2.30644C123.434 1.61693 125.001 0.822998 127.928 0.822998C130.856 0.822998 132.422 1.61693 133.767 2.30644L133.797 2.32188C134.901 2.8884 135.8 3.34915 137.78 3.34915C139.761 3.34915 140.659 2.88841 141.763 2.32189L141.794 2.30644C143.138 1.61693 144.705 0.822998 147.632 0.822998C150.56 0.822998 152.126 1.61693 153.471 2.30644L153.501 2.32189C154.606 2.88841 155.504 3.34915 157.484 3.34915C159.465 3.34915 160.363 2.88839 161.468 2.32187L161.498 2.30644C162.842 1.61693 164.409 0.822998 167.336 0.822998C170.264 0.822998 171.83 1.61693 173.175 2.30644L173.205 2.32189C174.31 2.88841 175.208 3.34915 177.188 3.34915C179.169 3.34915 180.067 2.88841 181.171 2.32189L181.202 2.30644C182.546 1.61693 184.113 0.822998 187.04 0.822998C189.968 0.822998 191.534 1.61693 192.879 2.30644L192.909 2.32188C194.014 2.8884 194.912 3.34915 196.892 3.34915C198.873 3.34915 199.771 2.8884 200.876 2.32188L200.906 2.30644C202.25 1.61693 203.817 0.822998 206.744 0.822998C209.672 0.822998 211.238 1.61693 212.583 2.30644L212.613 2.32188C213.718 2.8884 214.616 3.34915 216.596 3.34915C218.577 3.34915 219.475 2.8884 220.58 2.32188L220.61 2.30644C221.954 1.61693 223.521 0.822998 226.448 0.822998C229.376 0.822998 230.942 1.61693 232.287 2.30644L232.317 2.32188C233.422 2.8884 234.32 3.34915 236.3 3.34915C238.281 3.34915 239.179 2.88839 240.284 2.32187L240.314 2.30644C241.658 1.61693 243.225 0.822998 246.152 0.822998C249.08 0.822998 250.646 1.61693 251.991 2.30644L252.021 2.3219C253.126 2.88841 254.024 3.34915 256.004 3.34915C257.985 3.34915 258.883 2.88841 259.988 2.3219L260.018 2.30644C261.362 1.61693 262.929 0.822998 265.856 0.822998C268.784 0.822998 270.35 1.61693 271.695 2.30644L271.725 2.32188C272.83 2.8884 273.728 3.34915 275.708 3.34915C277.689 3.34915 278.587 2.88839 279.692 2.32185L279.722 2.30644C281.066 1.61693 282.633 0.822998 285.56 0.822998C288.488 0.822998 290.054 1.61693 291.399 2.30644L291.429 2.3219C292.534 2.88841 293.432 3.34915 295.412 3.34915C297.393 3.34915 298.291 2.88841 299.396 2.3219L299.426 2.30644C300.77 1.61693 302.337 0.822998 305.264 0.822998C308.192 0.822998 309.759 1.61693 311.103 2.30644L311.133 2.32188C312.238 2.8884 313.136 3.34915 315.116 3.34915C317.097 3.34915 317.995 2.88839 319.1 2.32185L319.13 2.30644C320.474 1.61693 322.041 0.822998 324.968 0.822998C327.896 0.822998 329.463 1.61693 330.807 2.30644L330.837 2.32188C331.942 2.8884 332.84 3.34915 334.82 3.34915C336.801 3.34915 337.699 2.8884 338.804 2.32188L338.834 2.30644C340.178 1.61693 341.745 0.822998 344.672 0.822998C347.6 0.822998 349.167 1.61693 350.511 2.30644L350.541 2.32185C351.646 2.88839 352.544 3.34915 354.524 3.34915C356.505 3.34915 357.403 2.8884 358.508 2.32188L358.538 2.30644C359.882 1.61693 361.449 0.822998 364.376 0.822998V4.823C362.396 4.823 361.498 5.28375 360.393 5.85027L360.363 5.86571C359.019 6.55523 357.452 7.34915 354.524 7.34915C351.597 7.34915 350.03 6.55523 348.686 5.86571L348.656 5.8503C347.551 5.28377 346.653 4.823 344.672 4.823C342.692 4.823 341.794 5.28375 340.689 5.85027L340.659 5.86571C339.315 6.55523 337.748 7.34915 334.82 7.34915C331.893 7.34915 330.326 6.55523 328.982 5.86571L328.952 5.85027C327.847 5.28375 326.949 4.823 324.968 4.823C322.988 4.823 322.09 5.28377 320.985 5.8503L320.955 5.86571C319.611 6.55523 318.044 7.34915 315.116 7.34915C312.189 7.34915 310.622 6.55523 309.278 5.86571L309.248 5.85027C308.143 5.28375 307.245 4.823 305.264 4.823C303.284 4.823 302.386 5.28374 301.281 5.85025L301.251 5.86571C299.906 6.55523 298.34 7.34915 295.412 7.34915C292.485 7.34915 290.918 6.55523 289.574 5.86571L289.544 5.8503C288.439 5.28377 287.541 4.823 285.56 4.823C283.58 4.823 282.682 5.28374 281.577 5.85025L281.547 5.86571C280.202 6.55523 278.636 7.34915 275.708 7.34915C272.781 7.34915 271.214 6.55523 269.87 5.86571L269.84 5.85027C268.735 5.28375 267.837 4.823 265.856 4.823C263.876 4.823 262.978 5.28375 261.873 5.85027L261.843 5.86571C260.498 6.55523 258.932 7.34915 256.004 7.34915C253.077 7.34915 251.51 6.55523 250.166 5.86571L250.136 5.8503C249.031 5.28377 248.133 4.823 246.152 4.823C244.172 4.823 243.274 5.28375 242.169 5.85026L242.139 5.86571C240.794 6.55523 239.228 7.34915 236.3 7.34915C233.373 7.34915 231.806 6.55523 230.462 5.86571L230.432 5.85028C229.327 5.28375 228.429 4.823 226.448 4.823C224.468 4.823 223.57 5.28375 222.465 5.85028L222.435 5.86571C221.09 6.55523 219.524 7.34915 216.596 7.34915C213.669 7.34915 212.102 6.55523 210.758 5.86571L210.728 5.85026C209.623 5.28375 208.725 4.823 206.744 4.823C204.764 4.823 203.866 5.28375 202.761 5.85028L202.731 5.86571C201.386 6.55523 199.82 7.34915 196.892 7.34915C193.965 7.34915 192.398 6.55523 191.054 5.86571L191.024 5.85028C189.919 5.28375 189.021 4.823 187.04 4.823C185.06 4.823 184.162 5.28375 183.057 5.85026L183.027 5.86571C181.682 6.55523 180.116 7.34915 177.188 7.34915C174.261 7.34915 172.694 6.55523 171.35 5.86571L171.319 5.85026C170.215 5.28375 169.317 4.823 167.336 4.823C165.356 4.823 164.457 5.28376 163.353 5.85029L163.323 5.86571C161.978 6.55523 160.412 7.34915 157.484 7.34915C154.557 7.34915 152.99 6.55523 151.646 5.86571L151.615 5.85026C150.511 5.28375 149.613 4.823 147.632 4.823C145.652 4.823 144.753 5.28375 143.649 5.85026L143.619 5.86571C142.274 6.55523 140.708 7.34915 137.78 7.34915C134.853 7.34915 133.286 6.55523 131.942 5.86571L131.911 5.85028C130.807 5.28375 129.909 4.823 127.928 4.823C125.948 4.823 125.049 5.28376 123.945 5.85029L123.915 5.86571C122.57 6.55523 121.004 7.34915 118.076 7.34915C115.148 7.34915 113.582 6.55523 112.238 5.86571L112.207 5.85028C111.103 5.28376 110.205 4.823 108.224 4.823C106.244 4.823 105.345 5.28375 104.241 5.85028L104.211 5.86571C102.866 6.55523 101.3 7.34915 98.3721 7.34915C95.4445 7.34915 93.8781 6.55523 92.5335 5.86571L92.5034 5.85028C91.3988 5.28375 90.5005 4.823 88.5201 4.823C86.5397 4.823 85.6414 5.28375 84.5369 5.85027L84.5068 5.86571C83.1622 6.55523 81.5958 7.34915 78.6681 7.34915C75.7404 7.34915 74.174 6.55523 72.8295 5.86571L72.7994 5.85028C71.6948 5.28375 70.7965 4.823 68.8161 4.823C66.8357 4.823 65.9374 5.28375 64.8328 5.85027L64.8027 5.86571C63.4582 6.55523 61.8918 7.34915 58.9641 7.34915C56.0364 7.34915 54.47 6.55523 53.1255 5.86571L53.0953 5.85027C51.9908 5.28375 51.0925 4.823 49.1121 4.823C47.1317 4.823 46.2334 5.28375 45.1288 5.85027L45.0987 5.86571C43.7542 6.55523 42.1877 7.34915 39.2601 7.34915C36.3324 7.34915 34.766 6.55523 33.4214 5.86571L33.3913 5.85027C32.2868 5.28375 31.3884 4.823 29.4081 4.823C27.4277 4.823 26.5293 5.28375 25.4248 5.85027L25.3947 5.86571C24.0501 6.55523 22.4837 7.34915 19.556 7.34915C16.6284 7.34915 15.062 6.55523 13.7174 5.86571L13.6873 5.85027C12.5827 5.28375 11.6844 4.823 9.70403 4.823C7.72365 4.823 6.82531 5.28375 5.72076 5.85027L5.69065 5.86571C4.3461 6.55523 2.77968 7.34915 -0.147987 7.34915C-3.07565 7.34915 -4.64207 6.55523 -5.98663 5.86571C-5.99668 5.86056 -6.00671 5.85541 -6.01673 5.85027Z" fill="#FFCD40"/>
</g>
<defs>
<clipPath id="clip0">
<rect width="20" height="8" fill="white"/>
</clipPath>
</defs>
</svg>
