<svg width="112" height="24" viewBox="0 0 112 24" fill="none" xmlns="http://www.w3.org/2000/svg">
<g clip-path="url(#clip0)">
<path fill-rule="evenodd" clip-rule="evenodd" d="M-33.1449 28.5298C-39.4133 25.3148 -44.5114 22.7 -55.75 22.7V0C-39.1355 0 -30.2461 4.50555 -22.6157 8.41854L-22.4449 8.50616C-16.1765 11.7212 -11.2387 14.7295 0 14.7295C11.2387 14.7295 16.4969 11.7212 22.7652 8.50616L22.9361 8.41854C30.5664 4.50555 39.4558 0 56.0704 0C72.6849 0 81.5743 4.50555 89.2046 8.41854L89.3755 8.50616C95.6438 11.7212 100.761 14.7295 112 14.7295C123.239 14.7295 128.317 11.7212 134.586 8.50615L134.756 8.41854C142.387 4.50555 151.276 0 167.891 0C184.505 0 193.395 4.50555 201.025 8.41854L201.196 8.50616C207.464 11.7212 212.562 14.3359 223.801 14.3359C235.04 14.3359 240.138 11.7212 246.406 8.50616L246.577 8.41854C254.207 4.50555 263.097 0 279.711 0C296.326 0 305.215 4.50555 312.845 8.41854L313.016 8.50617C319.285 11.7212 324.383 14.3359 335.621 14.3359C346.86 14.3359 351.958 11.7212 358.226 8.50617L358.397 8.41854C366.027 4.50555 374.917 0 391.531 0C408.146 0 417.035 4.50555 424.666 8.41854L424.837 8.50621C431.105 11.7212 436.203 14.3359 447.442 14.3359C458.68 14.3359 463.778 11.7212 470.047 8.50617L470.217 8.41854C477.848 4.50555 486.737 0 503.352 0C519.966 0 528.856 4.50555 536.486 8.41854L536.657 8.5061C542.925 11.7211 548.023 14.3359 559.262 14.3359C570.501 14.3359 575.599 11.7212 581.867 8.50614L582.038 8.41854C589.668 4.50555 598.558 0 615.172 0C631.787 0 640.676 4.50555 648.306 8.41854L648.477 8.50617C654.746 11.7212 659.844 14.3359 671.082 14.3359C682.321 14.3359 687.419 11.7212 693.687 8.50621L693.858 8.41854C701.489 4.50555 710.378 0 726.992 0C743.607 0 752.496 4.50555 760.127 8.41854L760.297 8.50613C766.566 11.7211 771.664 14.3359 782.903 14.3359C794.141 14.3359 799.239 11.7212 805.508 8.5062L805.679 8.41854C813.309 4.50555 822.198 0 838.813 0C855.427 0 864.317 4.50555 871.947 8.41854L872.118 8.5062C878.386 11.7212 883.484 14.3359 894.723 14.3359C905.962 14.3359 911.06 11.7211 917.328 8.50608L917.499 8.41855C925.129 4.50555 934.019 0 950.633 0C967.248 0 976.137 4.50555 983.767 8.41854L983.938 8.5062C990.207 11.7212 995.305 14.3359 1006.54 14.3359C1017.78 14.3359 1022.88 11.7212 1029.15 8.5062L1029.32 8.41854C1036.95 4.50555 1045.84 0 1062.45 0C1079.07 0 1087.96 4.50555 1095.59 8.41854L1095.76 8.50613C1102.03 11.7211 1107.12 14.3359 1118.36 14.3359C1129.6 14.3359 1134.7 11.7211 1140.97 8.50613L1141.14 8.41854C1148.77 4.50555 1157.66 0 1174.27 0C1190.89 0 1199.78 4.50555 1207.41 8.41855L1207.58 8.50615C1213.85 11.7212 1218.95 14.3359 1230.18 14.3359C1241.42 14.3359 1246.52 11.7211 1252.79 8.50613L1252.96 8.41854C1260.59 4.50555 1269.48 0 1286.09 0C1302.71 0 1311.6 4.50555 1319.23 8.41854L1319.4 8.50613C1325.67 11.7211 1330.77 14.3359 1342 14.3359C1353.24 14.3359 1358.34 11.7211 1364.61 8.50607L1364.78 8.41854C1372.41 4.50555 1381.3 0 1397.91 0C1414.53 0 1423.42 4.50555 1431.05 8.41854L1431.22 8.50626C1437.49 11.7212 1442.59 14.3359 1453.82 14.3359C1465.06 14.3359 1470.16 11.7212 1476.43 8.50627L1476.6 8.41855C1484.23 4.50555 1493.12 0 1509.73 0C1526.35 0 1535.24 4.50555 1542.87 8.41854L1543.04 8.50614C1549.31 11.7212 1554.41 14.3359 1565.65 14.3359C1576.88 14.3359 1581.98 11.7211 1588.25 8.506L1588.42 8.41854C1596.05 4.50555 1604.94 0 1621.56 0C1638.17 0 1647.06 4.50555 1654.69 8.41854L1654.86 8.50626C1661.13 11.7212 1666.23 14.3359 1677.47 14.3359C1688.7 14.3359 1693.8 11.7212 1700.07 8.50626L1700.24 8.41854C1707.87 4.50555 1716.76 0 1733.38 0C1749.99 0 1758.88 4.50555 1766.51 8.41855L1766.68 8.50615C1772.95 11.7212 1778.05 14.3359 1789.29 14.3359C1800.52 14.3359 1805.62 11.7211 1811.89 8.50599L1812.06 8.41853C1819.69 4.50555 1828.58 0 1845.2 0C1861.81 0 1870.7 4.50555 1878.33 8.41855L1878.5 8.50616C1884.77 11.7212 1889.87 14.3359 1901.11 14.3359C1912.34 14.3359 1917.44 11.7212 1923.71 8.50615L1923.88 8.41855C1931.51 4.50555 1940.4 0 1957.02 0C1973.63 0 1982.52 4.50555 1990.15 8.41853L1990.32 8.50599C1996.59 11.7211 2001.69 14.3359 2012.93 14.3359C2024.17 14.3359 2029.26 11.7212 2035.53 8.50615L2035.7 8.41855C2043.33 4.50555 2052.22 0 2068.84 0V22.7C2057.6 22.7 2052.5 25.3148 2046.23 28.5298L2046.06 28.6174C2038.43 32.5304 2029.54 37.0359 2012.93 37.0359C1996.31 37.0359 1987.42 32.5304 1979.79 28.6174L1979.62 28.5299C1973.35 25.3149 1968.26 22.7 1957.02 22.7C1945.78 22.7 1940.68 25.3148 1934.41 28.5298L1934.24 28.6174C1926.61 32.5304 1917.72 37.0359 1901.11 37.0359C1884.49 37.0359 1875.6 32.5304 1867.97 28.6174L1867.8 28.5298C1861.53 25.3148 1856.43 22.7 1845.2 22.7C1833.96 22.7 1828.86 25.3149 1822.59 28.5299L1822.42 28.6174C1814.79 32.5304 1805.9 37.0359 1789.29 37.0359C1772.67 37.0359 1763.78 32.5304 1756.15 28.6174L1755.98 28.5298C1749.71 25.3148 1744.61 22.7 1733.38 22.7C1722.14 22.7 1717.04 25.3147 1710.77 28.5297L1710.6 28.6174C1702.97 32.5304 1694.08 37.0359 1677.47 37.0359C1660.85 37.0359 1651.96 32.5304 1644.33 28.6174L1644.16 28.5299C1637.89 25.3149 1632.79 22.7 1621.56 22.7C1610.32 22.7 1605.22 25.3147 1598.95 28.5297L1598.78 28.6174C1591.15 32.5304 1582.26 37.0359 1565.65 37.0359C1549.03 37.0359 1540.14 32.5304 1532.51 28.6174L1532.34 28.5298C1526.07 25.3148 1520.97 22.7 1509.73 22.7C1498.5 22.7 1493.4 25.3148 1487.13 28.5298L1486.96 28.6174C1479.33 32.5304 1470.44 37.0359 1453.82 37.0359C1437.21 37.0359 1428.32 32.5304 1420.69 28.6174L1420.52 28.5299C1414.25 25.3149 1409.15 22.7 1397.91 22.7C1386.68 22.7 1381.58 25.3148 1375.31 28.5297L1375.14 28.6174C1367.51 32.5304 1358.62 37.0359 1342 37.0359C1325.39 37.0359 1316.5 32.5304 1308.87 28.6174L1308.7 28.5298C1302.43 25.3148 1297.33 22.7 1286.09 22.7C1274.86 22.7 1269.76 25.3148 1263.49 28.5298L1263.32 28.6174C1255.69 32.5304 1246.8 37.0359 1230.18 37.0359C1213.57 37.0359 1204.68 32.5304 1197.05 28.6174L1196.88 28.5297C1190.61 25.3147 1185.51 22.7 1174.27 22.7C1163.04 22.7 1157.94 25.3148 1151.67 28.5298L1151.5 28.6174C1143.87 32.5304 1134.98 37.0359 1118.36 37.0359C1101.75 37.0359 1092.86 32.5304 1085.23 28.6174L1085.06 28.5298C1078.79 25.3148 1073.69 22.7 1062.45 22.7C1051.21 22.7 1046.12 25.3148 1039.85 28.5297L1039.68 28.6174C1032.05 32.5304 1023.16 37.0359 1006.54 37.0359C989.929 37.0359 981.039 32.5304 973.409 28.6174L973.238 28.5297C966.97 25.3148 961.872 22.7 950.633 22.7C939.394 22.7 934.296 25.3148 928.028 28.5299L927.857 28.6174C920.227 32.5304 911.338 37.0359 894.723 37.0359C878.109 37.0359 869.219 32.5304 861.589 28.6174L861.418 28.5297C855.15 25.3148 850.051 22.7 838.813 22.7C827.574 22.7 822.476 25.3148 816.208 28.5297L816.037 28.6174C808.407 32.5304 799.517 37.0359 782.903 37.0359C766.288 37.0359 757.399 32.5304 749.768 28.6174L749.598 28.5298C743.329 25.3148 738.231 22.7 726.992 22.7C715.754 22.7 710.656 25.3148 704.387 28.5299L704.217 28.6174C696.586 32.5304 687.697 37.0359 671.082 37.0359C654.468 37.0359 645.578 32.5304 637.948 28.6174L637.777 28.5298C631.509 25.3148 626.411 22.7 615.172 22.7C603.933 22.7 598.835 25.3148 592.567 28.5298L592.396 28.6174C584.766 32.5304 575.876 37.0359 559.262 37.0359C542.647 37.0359 533.758 32.5304 526.128 28.6174L525.957 28.5298C519.689 25.3148 514.59 22.7 503.352 22.7C492.113 22.7 487.015 25.3148 480.747 28.5298L480.576 28.6174C472.945 32.5304 464.056 37.0359 447.442 37.0359C430.827 37.0359 421.938 32.5304 414.307 28.6174L414.136 28.5298C407.868 25.3148 402.77 22.7 391.531 22.7C380.293 22.7 375.195 25.3148 368.926 28.5298L368.755 28.6174C361.125 32.5304 352.236 37.0359 335.621 37.0359C319.007 37.0359 310.117 32.5304 302.487 28.6174L302.316 28.5298C296.048 25.3148 290.95 22.7 279.711 22.7C268.472 22.7 263.374 25.3148 257.106 28.5298L256.935 28.6174C249.305 32.5304 240.415 37.0359 223.801 37.0359C207.186 37.0359 198.297 32.5304 190.667 28.6174L190.496 28.5298C184.227 25.3148 179.129 22.7 167.891 22.7C156.652 22.7 151.554 25.3148 145.286 28.5298L145.115 28.6174C137.484 32.5304 128.595 37.0359 111.981 37.0359C95.366 37.0359 86.4766 57.7301 78.8463 53.8171L78.6754 53.7295C72.4071 50.5145 67.309 47.8997 56.0704 47.8997C44.8317 47.8997 39.7336 50.5145 33.4653 53.7295L33.2945 53.8171C25.6641 57.7301 16.7747 37.0359 0.160175 37.0359C-16.4543 37.0359 -25.3438 32.5304 -32.9741 28.6174C-33.0312 28.5881 -33.0881 28.5589 -33.1449 28.5298Z" fill="#0099FF"/>
</g>
<defs>
<clipPath id="clip0">
<rect width="112" height="24" fill="white"/>
</clipPath>
</defs>
</svg>